<?xml version="1.0" encoding="UTF-8"?>
<svg xmlns="http://www.w3.org/2000/svg" viewBox="0 130 1100 480" width="1100" height="480">
  <defs>
    <marker id="arrowhead" markerWidth="8" markerHeight="6" refX="8" refY="3" orient="auto">
      <polygon points="0 0, 8 3, 0 6" fill="#8a857a"/>
    </marker>
  </defs>

  <!-- Background -->
  <rect width="1100" height="720" fill="#ffffff"/>

  <!-- Standard Header -->
  
  
  

  <!-- ══════════════════ PANEL 1 — AMAZON ══════════════════ -->
  <rect x="80" y="135" width="295" height="460" rx="4" stroke="#e8e2d6" stroke-width="1" fill="#ffffff"/>

  <!-- Platform label -->
  <text x="95" y="162" font-family="Georgia, 'Times New Roman', serif" font-size="13" font-weight="700" fill="#1a1a1a" letter-spacing="0.8">AMAZON</text>
  <text x="95" y="176" font-family="Georgia, 'Times New Roman', serif" font-size="10" fill="#6b665e" font-style="italic">product search</text>

  <!-- Search bar -->
  <rect x="95" y="183" width="265" height="26" rx="13" stroke="#8a857a" stroke-width="1" fill="white"/>
  <!-- Search icon: circle + handle -->
  <circle cx="110" cy="196" r="5" stroke="#8a857a" stroke-width="1.2" fill="none"/>
  <line x1="114" y1="200" x2="118" y2="204" stroke="#8a857a" stroke-width="1.2"/>
  <text x="122" y="200" font-family="Georgia, 'Times New Roman', serif" font-size="11" fill="#6b665e" font-style="italic">bluetooth speaker outdoor</text>

  <!-- Divider below search bar -->
  <line x1="95" y1="215" x2="360" y2="215" stroke="#e8e2d6" stroke-width="0.8"/>

  <!-- Card 1 (y=215) -->
  <rect x="88" y="218" width="279" height="70" rx="2" stroke="#e8e2d6" stroke-width="0.8" fill="white"/>
  <rect x="95" y="223" width="40" height="40" rx="2" fill="#e8e2d6"/>
  <!-- Product icon lines -->
  <line x1="103" y1="237" x2="127" y2="237" stroke="#b8b3a8" stroke-width="1.2"/>
  <line x1="103" y1="243" x2="122" y2="243" stroke="#b8b3a8" stroke-width="1"/>
  <line x1="103" y1="249" x2="127" y2="249" stroke="#b8b3a8" stroke-width="1"/>
  <text x="145" y="235" font-family="Georgia, 'Times New Roman', serif" font-size="12" fill="#1a1a1a" font-weight="700">JBL Flip 6 · Portable</text>
  <text x="145" y="250" font-family="Georgia, 'Times New Roman', serif" font-size="10" fill="#6b665e">Waterproof · 12hr battery</text>
  <text x="145" y="263" font-family="Georgia, 'Times New Roman', serif" font-size="10" fill="#c8553d">★★★★★</text>
  <text x="195" y="263" font-family="Georgia, 'Times New Roman', serif" font-size="9" fill="#6b665e"> 4.8 (12k)</text>
  <text x="145" y="276" font-family="Georgia, 'Times New Roman', serif" font-size="12" fill="#2a4747" font-weight="700">$119.95</text>

  <!-- Card 2 (y=298) -->
  <rect x="88" y="298" width="279" height="70" rx="2" stroke="#e8e2d6" stroke-width="0.8" fill="white"/>
  <rect x="95" y="303" width="40" height="40" rx="2" fill="#e8e2d6"/>
  <line x1="103" y1="317" x2="127" y2="317" stroke="#b8b3a8" stroke-width="1.2"/>
  <line x1="103" y1="323" x2="122" y2="323" stroke="#b8b3a8" stroke-width="1"/>
  <line x1="103" y1="329" x2="127" y2="329" stroke="#b8b3a8" stroke-width="1"/>
  <text x="145" y="315" font-family="Georgia, 'Times New Roman', serif" font-size="12" fill="#1a1a1a" font-weight="700">Bose SoundLink · Flex</text>
  <text x="145" y="330" font-family="Georgia, 'Times New Roman', serif" font-size="10" fill="#6b665e">360° sound · waterproof</text>
  <text x="145" y="343" font-family="Georgia, 'Times New Roman', serif" font-size="10" fill="#c8553d">★★★★☆</text>
  <text x="195" y="343" font-family="Georgia, 'Times New Roman', serif" font-size="9" fill="#6b665e"> 4.6</text>
  <text x="145" y="356" font-family="Georgia, 'Times New Roman', serif" font-size="12" fill="#2a4747" font-weight="700">$149.00</text>

  <!-- Card 3 (y=378) -->
  <rect x="88" y="378" width="279" height="70" rx="2" stroke="#e8e2d6" stroke-width="0.8" fill="white"/>
  <rect x="95" y="383" width="40" height="40" rx="2" fill="#e8e2d6"/>
  <line x1="103" y1="397" x2="127" y2="397" stroke="#b8b3a8" stroke-width="1.2"/>
  <line x1="103" y1="403" x2="122" y2="403" stroke="#b8b3a8" stroke-width="1"/>
  <line x1="103" y1="409" x2="127" y2="409" stroke="#b8b3a8" stroke-width="1"/>
  <text x="145" y="395" font-family="Georgia, 'Times New Roman', serif" font-size="12" fill="#1a1a1a" font-weight="700">Sony SRS-XB23</text>
  <text x="145" y="410" font-family="Georgia, 'Times New Roman', serif" font-size="10" fill="#6b665e">Extra bass · IP67</text>
  <text x="145" y="423" font-family="Georgia, 'Times New Roman', serif" font-size="10" fill="#c8553d">★★★★☆</text>
  <text x="195" y="423" font-family="Georgia, 'Times New Roman', serif" font-size="9" fill="#6b665e"> 4.5</text>
  <text x="145" y="436" font-family="Georgia, 'Times New Roman', serif" font-size="12" fill="#2a4747" font-weight="700">$89.99</text>

  <!-- ══════════════════ PANEL 2 — LINKEDIN ══════════════════ -->
  <rect x="410" y="135" width="295" height="460" rx="4" stroke="#e8e2d6" stroke-width="1" fill="#ffffff"/>

  <!-- Platform label -->
  <text x="425" y="162" font-family="Georgia, 'Times New Roman', serif" font-size="13" font-weight="700" fill="#1a1a1a" letter-spacing="0.8">LINKEDIN</text>
  <text x="425" y="176" font-family="Georgia, 'Times New Roman', serif" font-size="10" fill="#6b665e" font-style="italic">professional search</text>

  <!-- Search bar -->
  <rect x="425" y="183" width="265" height="26" rx="13" stroke="#8a857a" stroke-width="1" fill="white"/>
  <circle cx="440" cy="196" r="5" stroke="#8a857a" stroke-width="1.2" fill="none"/>
  <line x1="444" y1="200" x2="448" y2="204" stroke="#8a857a" stroke-width="1.2"/>
  <text x="452" y="200" font-family="Georgia, 'Times New Roman', serif" font-size="11" fill="#6b665e" font-style="italic">senior ML engineer Amsterdam</text>

  <!-- Divider -->
  <line x1="425" y1="215" x2="690" y2="215" stroke="#e8e2d6" stroke-width="0.8"/>

  <!-- Card 1 (y=215) — Person AK -->
  <rect x="418" y="218" width="279" height="70" rx="2" stroke="#e8e2d6" stroke-width="0.8" fill="white"/>
  <circle cx="448" cy="235" r="18" fill="#b8b3a8"/>
  <text x="448" y="239" font-family="Georgia, 'Times New Roman', serif" font-size="11" fill="#ffffff" text-anchor="middle">AK</text>
  <text x="475" y="231" font-family="Georgia, 'Times New Roman', serif" font-size="12" fill="#1a1a1a" font-weight="700">Anna K.</text>
  <text x="475" y="245" font-family="Georgia, 'Times New Roman', serif" font-size="10" fill="#6b665e">ML Engineer · Booking.com</text>
  <text x="475" y="258" font-family="Georgia, 'Times New Roman', serif" font-size="9" fill="#6b665e">Amsterdam, NL · 2nd connection</text>
  <!-- Connect button hint -->
  <rect x="475" y="264" width="52" height="14" rx="7" stroke="#2a4747" stroke-width="0.8" fill="none"/>
  <text x="501" y="274" font-family="Georgia, 'Times New Roman', serif" font-size="8" fill="#2a4747" text-anchor="middle">Connect</text>

  <!-- Card 2 (y=298) — Person MR -->
  <rect x="418" y="298" width="279" height="70" rx="2" stroke="#e8e2d6" stroke-width="0.8" fill="white"/>
  <circle cx="448" cy="315" r="18" fill="#8a857a"/>
  <text x="448" y="319" font-family="Georgia, 'Times New Roman', serif" font-size="11" fill="#ffffff" text-anchor="middle">MR</text>
  <text x="475" y="311" font-family="Georgia, 'Times New Roman', serif" font-size="12" fill="#1a1a1a" font-weight="700">Marc R.</text>
  <text x="475" y="325" font-family="Georgia, 'Times New Roman', serif" font-size="10" fill="#6b665e">Senior ML Lead · Adyen</text>
  <text x="475" y="338" font-family="Georgia, 'Times New Roman', serif" font-size="9" fill="#6b665e">Amsterdam · 3rd+</text>
  <rect x="475" y="344" width="52" height="14" rx="7" stroke="#2a4747" stroke-width="0.8" fill="none"/>
  <text x="501" y="354" font-family="Georgia, 'Times New Roman', serif" font-size="8" fill="#2a4747" text-anchor="middle">Connect</text>

  <!-- Card 3 (y=378) — Person SV -->
  <rect x="418" y="378" width="279" height="70" rx="2" stroke="#e8e2d6" stroke-width="0.8" fill="white"/>
  <circle cx="448" cy="395" r="18" fill="#6b665e"/>
  <text x="448" y="399" font-family="Georgia, 'Times New Roman', serif" font-size="11" fill="#ffffff" text-anchor="middle">SV</text>
  <text x="475" y="391" font-family="Georgia, 'Times New Roman', serif" font-size="12" fill="#1a1a1a" font-weight="700">Sara V.</text>
  <text x="475" y="405" font-family="Georgia, 'Times New Roman', serif" font-size="10" fill="#6b665e">Research Scientist · ASML</text>
  <text x="475" y="418" font-family="Georgia, 'Times New Roman', serif" font-size="9" fill="#6b665e">Eindhoven · 2nd</text>
  <rect x="475" y="424" width="52" height="14" rx="7" stroke="#2a4747" stroke-width="0.8" fill="none"/>
  <text x="501" y="434" font-family="Georgia, 'Times New Roman', serif" font-size="8" fill="#2a4747" text-anchor="middle">Connect</text>

  <!-- ══════════════════ PANEL 3 — BOOKING.COM ══════════════════ -->
  <rect x="740" y="135" width="295" height="460" rx="4" stroke="#e8e2d6" stroke-width="1" fill="#ffffff"/>

  <!-- Platform label -->
  <text x="755" y="162" font-family="Georgia, 'Times New Roman', serif" font-size="13" font-weight="700" fill="#1a1a1a" letter-spacing="0.8">BOOKING.COM</text>
  <text x="755" y="176" font-family="Georgia, 'Times New Roman', serif" font-size="10" fill="#6b665e" font-style="italic">travel search</text>

  <!-- Search bar -->
  <rect x="755" y="183" width="265" height="26" rx="13" stroke="#8a857a" stroke-width="1" fill="white"/>
  <circle cx="770" cy="196" r="5" stroke="#8a857a" stroke-width="1.2" fill="none"/>
  <line x1="774" y1="200" x2="778" y2="204" stroke="#8a857a" stroke-width="1.2"/>
  <text x="782" y="200" font-family="Georgia, 'Times New Roman', serif" font-size="11" fill="#6b665e" font-style="italic">hotels Amsterdam · 2 nights</text>

  <!-- Divider -->
  <line x1="755" y1="215" x2="1020" y2="215" stroke="#e8e2d6" stroke-width="0.8"/>

  <!-- Card 1 (y=215) -->
  <rect x="748" y="218" width="279" height="70" rx="2" stroke="#e8e2d6" stroke-width="0.8" fill="white"/>
  <rect x="755" y="223" width="40" height="40" rx="2" fill="#e8e2d6"/>
  <!-- Building icon lines -->
  <rect x="762" y="232" width="6" height="8" fill="#b8b3a8" rx="0.5"/>
  <rect x="771" y="232" width="6" height="8" fill="#b8b3a8" rx="0.5"/>
  <rect x="762" y="244" width="15" height="8" fill="#b8b3a8" rx="0.5"/>
  <text x="805" y="231" font-family="Georgia, 'Times New Roman', serif" font-size="12" fill="#1a1a1a" font-weight="700">Conservatorium Hotel</text>
  <text x="805" y="245" font-family="Georgia, 'Times New Roman', serif" font-size="10" fill="#6b665e">Museumplein · 5★</text>
  <text x="805" y="258" font-family="Georgia, 'Times New Roman', serif" font-size="10" fill="#2a4747" font-weight="700">9.2 Exceptional</text>
  <text x="805" y="271" font-family="Georgia, 'Times New Roman', serif" font-size="12" fill="#c8553d" font-weight="700">€285/night</text>

  <!-- Card 2 (y=298) -->
  <rect x="748" y="298" width="279" height="70" rx="2" stroke="#e8e2d6" stroke-width="0.8" fill="white"/>
  <rect x="755" y="303" width="40" height="40" rx="2" fill="#e8e2d6"/>
  <rect x="762" y="312" width="6" height="8" fill="#b8b3a8" rx="0.5"/>
  <rect x="771" y="312" width="6" height="8" fill="#b8b3a8" rx="0.5"/>
  <rect x="762" y="324" width="15" height="8" fill="#b8b3a8" rx="0.5"/>
  <text x="805" y="311" font-family="Georgia, 'Times New Roman', serif" font-size="12" fill="#1a1a1a" font-weight="700">Hotel V Nesplein</text>
  <text x="805" y="325" font-family="Georgia, 'Times New Roman', serif" font-size="10" fill="#6b665e">City Centre · 4★</text>
  <text x="805" y="338" font-family="Georgia, 'Times New Roman', serif" font-size="10" fill="#2a4747" font-weight="700">8.8 Fabulous</text>
  <text x="805" y="351" font-family="Georgia, 'Times New Roman', serif" font-size="12" fill="#c8553d" font-weight="700">€149/night</text>

  <!-- Card 3 (y=378) -->
  <rect x="748" y="378" width="279" height="70" rx="2" stroke="#e8e2d6" stroke-width="0.8" fill="white"/>
  <rect x="755" y="383" width="40" height="40" rx="2" fill="#e8e2d6"/>
  <rect x="762" y="392" width="6" height="8" fill="#b8b3a8" rx="0.5"/>
  <rect x="771" y="392" width="6" height="8" fill="#b8b3a8" rx="0.5"/>
  <rect x="762" y="404" width="15" height="8" fill="#b8b3a8" rx="0.5"/>
  <text x="805" y="391" font-family="Georgia, 'Times New Roman', serif" font-size="12" fill="#1a1a1a" font-weight="700">The Student Hotel</text>
  <text x="805" y="405" font-family="Georgia, 'Times New Roman', serif" font-size="10" fill="#6b665e">De Pijp · 3★</text>
  <text x="805" y="418" font-family="Georgia, 'Times New Roman', serif" font-size="10" fill="#2a4747" font-weight="700">8.4 Very Good</text>
  <text x="805" y="431" font-family="Georgia, 'Times New Roman', serif" font-size="12" fill="#c8553d" font-weight="700">€119/night</text>

  <!-- ══════════════════ FOOTER BAR ══════════════════ -->
  <line x1="80" y1="608" x2="1020" y2="608" stroke="#e8e2d6" stroke-width="1"/>
  <text x="550" y="638" font-family="Georgia, 'Times New Roman', serif" font-size="15" fill="#1a1a1a" text-anchor="middle">Common thread: rank millions of documents by relevance to the user's intent</text>
  <text x="550" y="658" font-family="Georgia, 'Times New Roman', serif" font-size="12" fill="#6b665e" font-style="italic" text-anchor="middle">E-commerce · Professional networks · Travel · News · Code — retrieval is everywhere</text>

</svg>
