<svg xmlns="http://www.w3.org/2000/svg" viewBox="0 130 1100 480" font-family="Georgia, 'Times New Roman', serif" width="1100" height="480">

  <rect width="1100" height="720" fill="#ffffff"/>

  <!-- title -->
  
  
  

  <!-- background grid -->
  <g stroke="#e8e2d6" stroke-width="1">
    <line x1="130" y1="540" x2="920" y2="540"/>
    <line x1="130" y1="480" x2="920" y2="480"/>
    <line x1="130" y1="420" x2="920" y2="420"/>
    <line x1="130" y1="360" x2="920" y2="360"/>
    <line x1="130" y1="300" x2="920" y2="300"/>
    <line x1="130" y1="240" x2="920" y2="240"/>
    <line x1="130" y1="180" x2="920" y2="180"/>
  </g>

  <!-- axes -->
  <line x1="130" y1="540" x2="920" y2="540" stroke="#1a1a1a" stroke-width="1.5"/>
  <line x1="130" y1="180" x2="130" y2="540" stroke="#1a1a1a" stroke-width="1.5"/>

  <!-- y-axis ticks -->
  <g font-size="13" fill="#1a1a1a" text-anchor="end">
    <text x="118" y="545">0</text>
    <text x="118" y="485">10</text>
    <text x="118" y="425">20</text>
    <text x="118" y="365">30</text>
    <text x="118" y="305">40</text>
    <text x="118" y="245">50</text>
    <text x="118" y="185">60</text>
  </g>
  <g stroke="#1a1a1a" stroke-width="1.5">
    <line x1="125" y1="540" x2="130" y2="540"/>
    <line x1="125" y1="480" x2="130" y2="480"/>
    <line x1="125" y1="420" x2="130" y2="420"/>
    <line x1="125" y1="360" x2="130" y2="360"/>
    <line x1="125" y1="300" x2="130" y2="300"/>
    <line x1="125" y1="240" x2="130" y2="240"/>
    <line x1="125" y1="180" x2="130" y2="180"/>
  </g>
  <text x="60" y="360" font-size="15" fill="#1a1a1a" text-anchor="middle"
        transform="rotate(-90 60 360)" font-style="italic">
    F1 score
  </text>

  <!-- legend block on right side -->
  <rect x="842" y="195" width="148" height="160" fill="#ffffff" stroke="#e8e2d6" stroke-width="1" rx="3"/>
  <g font-size="12">
    <text x="856" y="220" fill="#6b665e" font-weight="700" letter-spacing="0.5">SYSTEMS</text>

    <rect x="856" y="236" width="14" height="14" fill="#b8b3a8" stroke="#8a857a"/>
    <text x="876" y="248" fill="#1a1a1a">SELF-ASK</text>

    <rect x="856" y="258" width="14" height="14" fill="#b8b3a8" stroke="#8a857a"/>
    <text x="876" y="270" fill="#1a1a1a">ReAct</text>

    <rect x="856" y="280" width="14" height="14" fill="#8a857a" stroke="#8a857a"/>
    <text x="876" y="292" fill="#1a1a1a" font-weight="600">SearChain</text>
    <text x="876" y="308" fill="#6b665e" font-style="italic" font-size="10">strongest baseline</text>

    <rect x="856" y="320" width="14" height="14" fill="#c8553d" stroke="#c8553d"/>
    <text x="876" y="332" fill="#c8553d" font-weight="700">SUNAR</text>
  </g>

  <!-- GROUP 1 — 2WikiMultihopQA -->

  <!-- SELF-ASK: F1=38, y=312 -->
  <rect x="183" y="312" width="50" height="228" fill="#b8b3a8" stroke="#8a857a" stroke-width="0.8"/>
  <text x="208" y="304" font-size="11" fill="#6b665e" text-anchor="middle">38</text>

  <!-- ReAct: F1=42, y=288 -->
  <rect x="241" y="288" width="50" height="252" fill="#b8b3a8" stroke="#8a857a" stroke-width="0.8"/>
  <text x="266" y="280" font-size="11" fill="#6b665e" text-anchor="middle">42</text>

  <!-- SearChain: F1=45, y=270 -->
  <rect x="299" y="270" width="50" height="270" fill="#8a857a" stroke="#8a857a" stroke-width="0.8"/>
  <text x="296" y="262" font-size="11" fill="#6b665e" text-anchor="end" font-weight="600">45</text>

  <!-- SUNAR: F1=53, y=222 -->
  <rect x="357" y="222" width="50" height="318" fill="#c8553d" stroke="#c8553d" stroke-width="0.8"/>
  <text x="410" y="214" font-size="11" fill="#c8553d" text-anchor="start" font-weight="700">53</text>

  <!-- delta bracket group 1 -->
  <g>
    <line x1="324" y1="190" x2="324" y2="262" stroke="#1a1a1a" stroke-width="0.8"/>
    <line x1="382" y1="190" x2="382" y2="212" stroke="#1a1a1a" stroke-width="0.8"/>
    <line x1="324" y1="190" x2="382" y2="190" stroke="#1a1a1a" stroke-width="0.8"/>
    <rect x="335" y="166" width="36" height="22" fill="#ffffff" stroke="none"/>
    <text x="353" y="183" font-size="15" fill="#c8553d" text-anchor="middle" font-weight="700">+18%</text>
  </g>

  <!-- group 1 label -->
  <text x="295" y="595" font-size="15" fill="#1a1a1a" text-anchor="middle" font-weight="700" letter-spacing="0.5">
    2WikiMultihopQA
  </text>

  <!-- GROUP 2 — MuSiQue (new in s3) -->

  <!-- SELF-ASK: F1=28, y=540-6*28=372 -->
  <rect x="583" y="372" width="50" height="168" fill="#b8b3a8" stroke="#8a857a" stroke-width="0.8"/>
  <text x="608" y="364" font-size="11" fill="#6b665e" text-anchor="middle">28</text>

  <!-- ReAct: F1=30, y=360 -->
  <rect x="641" y="360" width="50" height="180" fill="#b8b3a8" stroke="#8a857a" stroke-width="0.8"/>
  <text x="666" y="352" font-size="11" fill="#6b665e" text-anchor="middle">30</text>

  <!-- SearChain: F1=33, y=342 -->
  <rect x="699" y="342" width="50" height="198" fill="#8a857a" stroke="#8a857a" stroke-width="0.8"/>
  <text x="696" y="334" font-size="11" fill="#6b665e" text-anchor="end" font-weight="600">33</text>

  <!-- SUNAR: F1=38, y=312 -->
  <rect x="757" y="312" width="50" height="228" fill="#c8553d" stroke="#c8553d" stroke-width="0.8"/>
  <text x="810" y="304" font-size="11" fill="#c8553d" text-anchor="start" font-weight="700">38</text>

  <!-- delta bracket group 2 -->
  <g>
    <line x1="724" y1="280" x2="724" y2="334" stroke="#1a1a1a" stroke-width="0.8"/>
    <line x1="782" y1="280" x2="782" y2="304" stroke="#1a1a1a" stroke-width="0.8"/>
    <line x1="724" y1="280" x2="782" y2="280" stroke="#1a1a1a" stroke-width="0.8"/>
    <rect x="735" y="256" width="36" height="22" fill="#ffffff" stroke="none"/>
    <text x="753" y="273" font-size="15" fill="#c8553d" text-anchor="middle" font-weight="700">+15%</text>
  </g>

  <!-- group 2 label -->
  <text x="695" y="595" font-size="15" fill="#1a1a1a" text-anchor="middle" font-weight="700" letter-spacing="0.5">
    MuSiQue
  </text>

  </svg>
