<svg xmlns="http://www.w3.org/2000/svg" viewBox="0 130 1100 480" font-family="Georgia, 'Times New Roman', serif" width="1100" height="480">
  <rect width="1100" height="720" fill="#ffffff"/>

  <!-- title -->
  
  
  

  <!-- LEFT chart header -->
  <text x="80" y="163" font-size="13" fill="#6b665e" font-weight="700" letter-spacing="0.5">RECALL IMPROVEMENT</text>

  <!-- left grid -->
  <g stroke="#e8e2d6" stroke-width="1">
    <line x1="130" y1="500" x2="470" y2="500"/>
    <line x1="130" y1="436" x2="470" y2="436"/>
    <line x1="130" y1="372" x2="470" y2="372"/>
    <line x1="130" y1="308" x2="470" y2="308"/>
    <line x1="130" y1="244" x2="470" y2="244"/>
    <line x1="130" y1="180" x2="470" y2="180"/>
  </g>

  <!-- left axes -->
  <line x1="130" y1="500" x2="470" y2="500" stroke="#1a1a1a" stroke-width="1.5"/>
  <line x1="130" y1="180" x2="130" y2="500" stroke="#1a1a1a" stroke-width="1.5"/>

  <!-- y-axis ticks and labels -->
  <g font-size="12" fill="#1a1a1a" text-anchor="end">
    <text x="122" y="504">0.0</text>
    <text x="122" y="440">0.2</text>
    <text x="122" y="376">0.4</text>
    <text x="122" y="312">0.6</text>
    <text x="122" y="248">0.8</text>
    <text x="122" y="184">1.0</text>
  </g>
  <g stroke="#1a1a1a" stroke-width="1.2">
    <line x1="125" y1="500" x2="130" y2="500"/>
    <line x1="125" y1="436" x2="130" y2="436"/>
    <line x1="125" y1="372" x2="130" y2="372"/>
    <line x1="125" y1="308" x2="130" y2="308"/>
    <line x1="125" y1="244" x2="130" y2="244"/>
    <line x1="125" y1="180" x2="130" y2="180"/>
  </g>
  <text x="60" y="340" font-size="14" fill="#1a1a1a" text-anchor="middle" transform="rotate(-90 60 340)" font-style="italic">Recall@50</text>

  <!-- vertical divider -->
  <line x1="510" y1="148" x2="510" y2="590" stroke="#e8e2d6" stroke-width="1"/>
</svg>
