<svg xmlns="http://www.w3.org/2000/svg" viewBox="0 130 1100 480" width="1100" height="480" font-family="Georgia, 'Times New Roman', serif">
  <!-- ============================================================
       FIGURES version — pipeline + feedback loops only (no title block)
       viewBox="0 130 1100 480" crops out the title area.
       ============================================================ -->

  <defs>
    <!-- forward arrow -->
    <marker id="arrowFW" viewBox="0 0 10 10" refX="9" refY="5" markerWidth="9" markerHeight="9" orient="auto">
      <path d="M0,0 L10,5 L0,10 z" fill="#1a1a1a"/>
    </marker>
    <!-- feedback arrow (terracotta) -->
    <marker id="arrowFB" viewBox="0 0 10 10" refX="9" refY="5" markerWidth="9" markerHeight="9" orient="auto">
      <path d="M0,0 L10,5 L0,10 z" fill="#c8553d"/>
    </marker>
  </defs>

  <!-- Background -->
  <rect x="0" y="130" width="1100" height="480" fill="#ffffff"/>

  <!-- ============================================================
       PIPELINE STAGES  (y = 320)
       ============================================================ -->

  <!-- Query node -->
  <g>
    <circle cx="130" cy="320" r="50" fill="#ffffff" stroke="#1a1a1a" stroke-width="2"/>
    <text x="130" y="316" font-size="15" fill="#1a1a1a" text-anchor="middle" font-weight="600">Query</text>
    <text x="130" y="335" font-size="12" fill="#6b665e" text-anchor="middle" font-style="italic">q</text>
  </g>

  <!-- Retrieve box -->
  <g>
    <rect x="240" y="280" width="160" height="80" fill="#ffffff" stroke="#1a1a1a" stroke-width="2" rx="4"/>
    <text x="320" y="313" font-size="15" fill="#1a1a1a" text-anchor="middle" font-weight="600">Retrieve</text>
    <text x="320" y="335" font-size="12" fill="#6b665e" text-anchor="middle" font-style="italic">embeddings</text>
  </g>

  <!-- ============================================================
       CANDIDATE POOL — dashed box with dots
       ============================================================ -->
  <rect x="430" y="225" width="280" height="190" fill="none" stroke="#6b665e" stroke-width="1" stroke-dasharray="4,4" rx="3"/>
  <text x="570" y="218" font-size="13" fill="#6b665e" text-anchor="middle" font-weight="600" letter-spacing="0.3">
    top-1000 candidates
  </text>

  <!-- candidate dots: 6 rows × 12 cols, spacing 22 -->
  <g fill="#b8b3a8">
    <!-- row 1 -->
    <circle cx="450" cy="245" r="3.5"/><circle cx="472" cy="245" r="3.5"/>
    <circle cx="494" cy="245" r="3.5"/><circle cx="516" cy="245" r="3.5"/>
    <circle cx="538" cy="245" r="3.5"/><circle cx="560" cy="245" r="3.5"/>
    <circle cx="582" cy="245" r="3.5"/><circle cx="604" cy="245" r="3.5"/>
    <circle cx="626" cy="245" r="3.5"/><circle cx="648" cy="245" r="3.5"/>
    <circle cx="670" cy="245" r="3.5"/><circle cx="692" cy="245" r="3.5"/>
    <!-- row 2 -->
    <circle cx="450" cy="267" r="3.5"/><circle cx="472" cy="267" r="3.5"/>
    <circle cx="494" cy="267" r="3.5"/><circle cx="516" cy="267" r="3.5"/>
    <circle cx="538" cy="267" r="3.5"/><circle cx="560" cy="267" r="3.5"/>
    <circle cx="582" cy="267" r="3.5"/><circle cx="604" cy="267" r="3.5"/>
    <circle cx="626" cy="267" r="3.5"/><circle cx="648" cy="267" r="3.5"/>
    <circle cx="670" cy="267" r="3.5"/><circle cx="692" cy="267" r="3.5"/>
    <!-- row 3 -->
    <circle cx="450" cy="289" r="3.5"/><circle cx="472" cy="289" r="3.5"/>
    <circle cx="494" cy="289" r="3.5"/><circle cx="516" cy="289" r="3.5"/>
    <circle cx="538" cy="289" r="3.5"/><circle cx="560" cy="289" r="3.5"/>
    <circle cx="582" cy="289" r="3.5"/><circle cx="604" cy="289" r="3.5"/>
    <circle cx="626" cy="289" r="3.5"/><circle cx="648" cy="289" r="3.5"/>
    <circle cx="670" cy="289" r="3.5"/><circle cx="692" cy="289" r="3.5"/>
    <!-- row 4 -->
    <circle cx="450" cy="311" r="3.5"/><circle cx="472" cy="311" r="3.5"/>
    <circle cx="494" cy="311" r="3.5"/><circle cx="516" cy="311" r="3.5"/>
    <circle cx="538" cy="311" r="3.5"/><circle cx="560" cy="311" r="3.5"/>
    <circle cx="582" cy="311" r="3.5"/><circle cx="604" cy="311" r="3.5"/>
    <circle cx="626" cy="311" r="3.5"/><circle cx="648" cy="311" r="3.5"/>
    <circle cx="670" cy="311" r="3.5"/><circle cx="692" cy="311" r="3.5"/>
    <!-- row 5 -->
    <circle cx="450" cy="333" r="3.5"/><circle cx="472" cy="333" r="3.5"/>
    <circle cx="494" cy="333" r="3.5"/><circle cx="516" cy="333" r="3.5"/>
    <circle cx="538" cy="333" r="3.5"/><circle cx="560" cy="333" r="3.5"/>
    <circle cx="582" cy="333" r="3.5"/><circle cx="604" cy="333" r="3.5"/>
    <circle cx="626" cy="333" r="3.5"/><circle cx="648" cy="333" r="3.5"/>
    <circle cx="670" cy="333" r="3.5"/><circle cx="692" cy="333" r="3.5"/>
    <!-- row 6 -->
    <circle cx="450" cy="355" r="3.5"/><circle cx="472" cy="355" r="3.5"/>
    <circle cx="494" cy="355" r="3.5"/><circle cx="516" cy="355" r="3.5"/>
    <circle cx="538" cy="355" r="3.5"/><circle cx="560" cy="355" r="3.5"/>
    <circle cx="582" cy="355" r="3.5"/><circle cx="604" cy="355" r="3.5"/>
    <circle cx="626" cy="355" r="3.5"/><circle cx="648" cy="355" r="3.5"/>
    <circle cx="670" cy="355" r="3.5"/><circle cx="692" cy="355" r="3.5"/>
  </g>

  <!-- highlighted relevant docs inside the pool (teal) -->
  <g fill="#2a4747">
    <circle cx="494" cy="267" r="4.5"/>
    <circle cx="582" cy="311" r="4.5"/>
    <circle cx="648" cy="333" r="4.5"/>
    <circle cx="538" cy="355" r="4.5"/>
  </g>

  <!-- pool legend -->
  <g font-size="11" fill="#6b665e" font-style="italic">
    <circle cx="438" cy="436" r="3.5" fill="#b8b3a8"/>
    <text x="450" y="440">retrieved</text>
    <circle cx="512" cy="436" r="4.5" fill="#2a4747"/>
    <text x="522" y="440" fill="#2a4747">relevant</text>
  </g>

  <!-- top-k label -->
  <text x="700" y="440" font-size="11" fill="#6b665e" text-anchor="end" font-style="italic">top-10 → rerank</text>

  <!-- Rerank box -->
  <g>
    <rect x="740" y="280" width="140" height="80" fill="#ffffff" stroke="#1a1a1a" stroke-width="2" rx="4"/>
    <text x="810" y="313" font-size="15" fill="#1a1a1a" text-anchor="middle" font-weight="600">Rerank</text>
    <text x="810" y="335" font-size="12" fill="#6b665e" text-anchor="middle" font-style="italic">deep, slow</text>
  </g>

  <!-- Generate box -->
  <g>
    <rect x="920" y="280" width="130" height="80" fill="#ffffff" stroke="#1a1a1a" stroke-width="2" rx="4"/>
    <text x="985" y="313" font-size="15" fill="#1a1a1a" text-anchor="middle" font-weight="600">Generate</text>
    <text x="985" y="335" font-size="12" fill="#6b665e" text-anchor="middle" font-style="italic">answer</text>
  </g>

  <!-- ============================================================
       FORWARD FLOW ARROWS (black)
       ============================================================ -->
  <line x1="180" y1="320" x2="234" y2="320" stroke="#1a1a1a" stroke-width="2" marker-end="url(#arrowFW)"/>
  <line x1="402" y1="320" x2="424" y2="320" stroke="#1a1a1a" stroke-width="2" marker-end="url(#arrowFW)"/>
  <line x1="712" y1="320" x2="734" y2="320" stroke="#1a1a1a" stroke-width="2" marker-end="url(#arrowFW)"/>
  <line x1="882" y1="320" x2="914" y2="320" stroke="#1a1a1a" stroke-width="2" marker-end="url(#arrowFW)"/>

  <!-- ============================================================
       FEEDBACK LOOP 1: Reranker → Retriever (ABOVE the pipeline)
       Starts from top-centre of Rerank (810,280), arcs to y=168,
       clears pool top at y=225 and label at y=218.
       ============================================================ -->
  <path d="M 810,280 C 810,168 320,168 320,280"
        fill="none"
        stroke="#c8553d"
        stroke-width="2"
        stroke-dasharray="6,3"
        marker-end="url(#arrowFB)"/>
  <text x="565" y="158" font-size="13" fill="#c8553d" text-anchor="middle" font-style="italic">reranker feedback</text>

  <!-- ============================================================
       FEEDBACK LOOP 2: Generator → Retriever (BELOW the pipeline)
       Starts from bottom-centre of Generate (985,360), dips to y=490,
       clears pool bottom at y=415 and legend at y=436.
       ============================================================ -->
  <path d="M 985,360 C 985,490 320,490 320,360"
        fill="none"
        stroke="#c8553d"
        stroke-width="2"
        stroke-dasharray="6,3"
        marker-end="url(#arrowFB)"/>
  <text x="653" y="510" font-size="13" fill="#c8553d" text-anchor="middle" font-style="italic">answer feedback</text>
  <text x="600" y="490" font-size="13" fill="#c8553d" text-anchor="middle" font-style="italic">answer feedback</text>

</svg>
