<svg xmlns="http://www.w3.org/2000/svg" viewBox="0 0 1100 720" font-family="Georgia, 'Times New Roman', serif">
  <defs>
    <marker id="arrQ" viewBox="0 0 10 10" refX="9" refY="5" markerWidth="9" markerHeight="9" orient="auto">
      <path d="M0,0 L10,5 L0,10 z" fill="#1a1a1a"/>
    </marker>
    <marker id="arrQacc" viewBox="0 0 10 10" refX="9" refY="5" markerWidth="10" markerHeight="10" orient="auto">
      <path d="M0,0 L10,5 L0,10 z" fill="#c8553d"/>
    </marker>
  </defs>

  <rect width="1100" height="720" fill="#ffffff"/>

  <!-- title -->
  <text font-family="Georgia, 'Times New Roman', serif" x="80" y="68" font-size="32" font-weight="bold" fill="#1a1a1a">QUAM — reranker feedback guides the next batch</text>
  <text font-family="Georgia, 'Times New Roman', serif" x="80" y="94" font-size="16" font-style="italic" fill="#6b665e">Scored docs reveal neighbors · neighborhood lookup selects next candidates</text>
  <line x1="80" y1="112" x2="200" y2="112" stroke="#1a1a1a" stroke-width="1.2"/>

  <!-- POOL label -->
  <text x="80" y="160" font-size="13" fill="#1a1a1a" font-weight="700" letter-spacing="0.5">CANDIDATE POOL</text>
  <text x="80" y="180" font-size="11" fill="#6b665e" font-style="italic">single BM25 signal per document</text>

  <!-- feature legend -->
  <g font-size="10" fill="#6b665e">
    <rect x="80" y="195" width="8" height="8" fill="#8a857a"/>
    <text x="93" y="203">BM25</text>
  </g>

  <!-- Pool box -->
  <rect x="70" y="220" width="310" height="380" fill="#ffffff" stroke="#1a1a1a" stroke-width="1.5" rx="3"/>

  <!-- d1: scored -->
  <g>
    <text x="85" y="247" font-size="11" fill="#1a1a1a" font-family="Courier, monospace">d<tspan font-size="9" baseline-shift="sub">1</tspan></text>
    <rect x="115" y="240" width="190" height="9" fill="#8a857a" rx="1"/>
    <text x="318" y="247" font-size="10" fill="#2a4747" font-weight="700">● scored</text>
  </g>
  <line x1="115" y1="252" x2="305" y2="252" stroke="#2a4747" stroke-width="1.5"/>

  <!-- d2: scored -->
  <g>
    <text x="85" y="277" font-size="11" fill="#1a1a1a" font-family="Courier, monospace">d<tspan font-size="9" baseline-shift="sub">2</tspan></text>
    <rect x="115" y="270" width="170" height="9" fill="#8a857a" rx="1"/>
    <text x="318" y="277" font-size="10" fill="#2a4747" font-weight="700">● scored</text>
  </g>
  <line x1="115" y1="282" x2="285" y2="282" stroke="#2a4747" stroke-width="1.5"/>

  <!-- d3: scored -->
  <g>
    <text x="85" y="307" font-size="11" fill="#1a1a1a" font-family="Courier, monospace">d<tspan font-size="9" baseline-shift="sub">3</tspan></text>
    <rect x="115" y="300" width="152" height="9" fill="#8a857a" rx="1"/>
    <text x="318" y="307" font-size="10" fill="#2a4747" font-weight="700">● scored</text>
  </g>
  <line x1="115" y1="312" x2="267" y2="312" stroke="#2a4747" stroke-width="1.5"/>

  <!-- divider -->
  <line x1="80" y1="328" x2="372" y2="328" stroke="#1a1a1a" stroke-width="0.6" stroke-dasharray="3,3"/>
  <text x="368" y="324" font-size="10" fill="#6b665e" text-anchor="end" font-style="italic">judged so far (b = 3)</text>

  <!-- d4 -->
  <text x="85" y="357" font-size="11" fill="#1a1a1a" font-family="Courier, monospace">d<tspan font-size="9" baseline-shift="sub">4</tspan></text>
  <rect x="115" y="350" width="140" height="9" fill="#8a857a" rx="1"/>

  <!-- d5 -->
  <text x="85" y="387" font-size="11" fill="#1a1a1a" font-family="Courier, monospace">d<tspan font-size="9" baseline-shift="sub">5</tspan></text>
  <rect x="115" y="380" width="125" height="9" fill="#8a857a" rx="1"/>

  <!-- d6: SELECTED next by neighborhood -->
  <rect x="78" y="404" width="294" height="22" fill="#c8553d" fill-opacity="0.12" rx="2"/>
  <text x="85" y="417" font-size="11" fill="#c8553d" font-family="Courier, monospace" font-weight="700">d<tspan font-size="9" baseline-shift="sub">6</tspan></text>
  <rect x="115" y="410" width="108" height="9" fill="#8a857a" rx="1"/>
  <text x="348" y="417" font-size="10" fill="#c8553d" font-weight="700">▶ next</text>

  <!-- d7 -->
  <text x="85" y="447" font-size="11" fill="#1a1a1a" font-family="Courier, monospace">d<tspan font-size="9" baseline-shift="sub">7</tspan></text>
  <rect x="115" y="440" width="95" height="9" fill="#8a857a" rx="1"/>

  <!-- d8 -->
  <text x="85" y="477" font-size="11" fill="#1a1a1a" font-family="Courier, monospace">d<tspan font-size="9" baseline-shift="sub">8</tspan></text>
  <rect x="115" y="470" width="82" height="9" fill="#8a857a" rx="1"/>

  <!-- ellipsis -->
  <text x="220" y="510" font-size="14" fill="#6b665e" text-anchor="middle">...</text>
  <text x="220" y="540" font-size="11" fill="#6b665e" text-anchor="middle" font-style="italic">N candidates total</text>

  <!-- pool footer -->
  <line x1="80" y1="565" x2="372" y2="565" stroke="#1a1a1a" stroke-width="0.6"/>
  <text x="220" y="585" font-size="11" fill="#6b665e" text-anchor="middle" font-style="italic">only a few will be sent to the expensive ranker</text>

  <!-- ===== NEIGHBORHOOD LOOKUP BOX ===== -->
  <rect x="420" y="195" width="280" height="370" fill="#ffffff" stroke="#1a1a1a" stroke-width="1.5" rx="3"/>
  <text x="560" y="218" font-size="13" fill="#1a1a1a" text-anchor="middle" font-weight="700" letter-spacing="1.2">LEARNED AFFINITY GRAPH</text>
  <text x="560" y="236" font-size="11" fill="#6b665e" text-anchor="middle" font-style="italic">edges = predicted co-relevance</text>

  <!-- mini graph inside affinity box -->
  <!-- edges -->
  <g stroke="#d8d4cc" stroke-width="1">
    <line x1="490" y1="310" x2="560" y2="280"/>
    <line x1="490" y1="310" x2="560" y2="360"/>
    <line x1="490" y1="310" x2="630" y2="310"/>
    <line x1="560" y1="280" x2="630" y2="310"/>
    <line x1="560" y1="360" x2="630" y2="310"/>
    <line x1="560" y1="280" x2="560" y2="360"/>
    <line x1="490" y1="310" x2="490" y2="430"/>
    <line x1="490" y1="430" x2="560" y2="460"/>
    <line x1="560" y1="460" x2="630" y2="430"/>
    <line x1="630" y1="430" x2="630" y2="310"/>
  </g>
  <!-- strong co-relevance edges -->
  <g stroke="#2a4747" stroke-width="2">
    <line x1="490" y1="310" x2="560" y2="280"/>
    <line x1="560" y1="460" x2="490" y2="430"/>
  </g>
  <!-- selected neighbor edges (terracotta) — d6 directly co-relevant with d1 and d2 -->
  <line x1="490" y1="310" x2="560" y2="360" stroke="#c8553d" stroke-width="2.5"/>
  <line x1="560" y1="280" x2="560" y2="360" stroke="#c8553d" stroke-width="2.5"/>

  <!-- nodes -->
  <circle cx="490" cy="310" r="18" fill="#dfe3e3" stroke="#2a4747" stroke-width="1.8"/>
  <text x="490" y="315" font-size="10" fill="#2a4747" text-anchor="middle" font-weight="600">d₁</text>

  <circle cx="560" cy="280" r="18" fill="#dfe3e3" stroke="#2a4747" stroke-width="1.8"/>
  <text x="560" y="285" font-size="10" fill="#2a4747" text-anchor="middle" font-weight="600">d₂</text>

  <circle cx="630" cy="310" r="18" fill="#ffffff" stroke="#8a857a" stroke-width="1.3"/>
  <text x="630" y="315" font-size="10" fill="#6b665e" text-anchor="middle">d₉</text>

  <circle cx="560" cy="360" r="18" fill="#f7e6e2" stroke="#c8553d" stroke-width="2"/>
  <text x="560" y="365" font-size="10" fill="#c8553d" text-anchor="middle" font-weight="700">d₆</text>

  <circle cx="490" cy="430" r="18" fill="#ffffff" stroke="#8a857a" stroke-width="1.3"/>
  <text x="490" y="435" font-size="10" fill="#6b665e" text-anchor="middle">d₃</text>

  <circle cx="560" cy="460" r="18" fill="#ffffff" stroke="#8a857a" stroke-width="1.3"/>
  <text x="560" y="465" font-size="10" fill="#6b665e" text-anchor="middle">d₅</text>

  <circle cx="630" cy="430" r="18" fill="#ffffff" stroke="#8a857a" stroke-width="1.3"/>
  <text x="630" y="435" font-size="10" fill="#6b665e" text-anchor="middle">d₇</text>

  <text x="560" y="502" font-size="10" fill="#c8553d" text-anchor="middle" font-style="italic">d₆ = neighbor of high-scoring d₁, d₂</text>

  <!-- ===== EXPENSIVE RANKER BOX ===== -->
  <rect x="750" y="280" width="220" height="130" fill="#ffffff" stroke="#2a4747" stroke-width="2.4" rx="4"/>
  <text x="860" y="318" font-size="15" fill="#2a4747" text-anchor="middle" font-weight="700">EXPENSIVE RANKER</text>
  <text x="860" y="343" font-size="12" fill="#6b665e" text-anchor="middle" font-style="italic">cross-encoder /</text>
  <text x="860" y="358" font-size="12" fill="#6b665e" text-anchor="middle" font-style="italic">RankLLaMA / etc.</text>
  <text x="860" y="394" font-size="11" fill="#2a4747" text-anchor="middle" font-weight="700" letter-spacing="0.5">scores docs in batch</text>

  <!-- pool → affinity graph -->
  <line x1="384" y1="370" x2="418" y2="370" stroke="#1a1a1a" stroke-width="2" marker-end="url(#arrQ)"/>
  <text x="401" y="350" font-size="10" fill="#1a1a1a" text-anchor="middle">scored</text>
  <text x="401" y="362" font-size="10" fill="#1a1a1a" text-anchor="middle">docs</text>

  <!-- affinity graph → ranker (d6 selected) -->
  <line x1="702" y1="345" x2="748" y2="345" stroke="#c8553d" stroke-width="2.2" marker-end="url(#arrQacc)"/>
  <text x="725" y="337" font-size="10" fill="#c8553d" text-anchor="middle" font-weight="700">d₆</text>

  <!-- FOOTER -->
  <line x1="80" y1="630" x2="200" y2="630" stroke="#c8553d" stroke-width="1.5"/>
  <text x="80" y="658" font-size="15" fill="#1a1a1a">The affinity graph tells us: <tspan font-style="italic" fill="#2a4747">given that d₁ and d₂ scored well, d₆ is likely to be relevant too.</tspan></text>
  <text x="80" y="682" font-size="14" fill="#c8553d">Next doc chosen by co-relevance proximity — not raw BM25 rank.</text>
</svg>
