<svg xmlns="http://www.w3.org/2000/svg" viewBox="0 0 1100 720" font-family="Georgia, 'Times New Roman', serif">
  <rect width="1100" height="720" fill="#ffffff"/>

  <!-- title -->
  <text font-family="Georgia, 'Times New Roman', serif" x="80" y="68" font-size="32" font-weight="bold" fill="#1a1a1a">
    CASE converges in fewer iterations
  </text>
  <text font-family="Georgia, 'Times New Roman', serif" x="80" y="94" font-size="16" font-style="italic" fill="#6b665e">
    Gap-index decay vs iteration count
  </text>
  <line x1="80" y1="112" x2="200" y2="112" stroke="#1a1a1a" stroke-width="1.2"/>

  <!-- background grid -->
  <g stroke="#e8e2d6" stroke-width="1">
    <line x1="130" y1="468" x2="880" y2="468"/>
    <line x1="130" y1="396" x2="880" y2="396"/>
    <line x1="130" y1="324" x2="880" y2="324"/>
    <line x1="130" y1="252" x2="880" y2="252"/>
    <line x1="237.1" y1="180" x2="237.1" y2="540" stroke-dasharray="2,4"/>
    <line x1="344.3" y1="180" x2="344.3" y2="540" stroke-dasharray="2,4"/>
    <line x1="451.4" y1="180" x2="451.4" y2="540" stroke-dasharray="2,4"/>
    <line x1="558.6" y1="180" x2="558.6" y2="540" stroke-dasharray="2,4"/>
    <line x1="665.7" y1="180" x2="665.7" y2="540" stroke-dasharray="2,4"/>
    <line x1="772.9" y1="180" x2="772.9" y2="540" stroke-dasharray="2,4"/>
  </g>

  <!-- convergence threshold zone -->
  <rect x="130" y="522" width="750" height="18" fill="#2a4747" fill-opacity="0.05"/>
  <line x1="130" y1="522" x2="880" y2="522" stroke="#2a4747" stroke-width="1" stroke-dasharray="6,3"/>
  <text x="885" y="526" font-size="11" fill="#2a4747" font-style="italic">converged (g &lt; 0.05)</text>

  <!-- axes -->
  <line x1="130" y1="540" x2="880" y2="540" stroke="#1a1a1a" stroke-width="1.5"/>
  <line x1="130" y1="180" x2="130" y2="540" stroke="#1a1a1a" stroke-width="1.5"/>

  <!-- y-axis ticks -->
  <g font-size="13" fill="#1a1a1a" text-anchor="end">
    <text x="118" y="545">0.0</text>
    <text x="118" y="473">0.2</text>
    <text x="118" y="401">0.4</text>
    <text x="118" y="329">0.6</text>
    <text x="118" y="257">0.8</text>
    <text x="118" y="185">1.0</text>
  </g>
  <g stroke="#1a1a1a" stroke-width="1.5">
    <line x1="125" y1="540" x2="130" y2="540"/>
    <line x1="125" y1="468" x2="130" y2="468"/>
    <line x1="125" y1="396" x2="130" y2="396"/>
    <line x1="125" y1="324" x2="130" y2="324"/>
    <line x1="125" y1="252" x2="130" y2="252"/>
    <line x1="125" y1="180" x2="130" y2="180"/>
  </g>
  <text x="60" y="360" font-size="15" fill="#1a1a1a" text-anchor="middle"
        transform="rotate(-90 60 360)" font-style="italic">
    Gap-index  (lower = better)
  </text>

  <!-- x-axis ticks -->
  <g stroke="#1a1a1a" stroke-width="1.5">
    <line x1="130" y1="540" x2="130" y2="545"/>
    <line x1="237.1" y1="540" x2="237.1" y2="545"/>
    <line x1="344.3" y1="540" x2="344.3" y2="545"/>
    <line x1="451.4" y1="540" x2="451.4" y2="545"/>
    <line x1="558.6" y1="540" x2="558.6" y2="545"/>
    <line x1="665.7" y1="540" x2="665.7" y2="545"/>
    <line x1="772.9" y1="540" x2="772.9" y2="545"/>
    <line x1="880" y1="540" x2="880" y2="545"/>
  </g>
  <g font-size="13" fill="#1a1a1a" text-anchor="middle">
    <text x="130" y="565">0</text>
    <text x="237.1" y="565">1k</text>
    <text x="344.3" y="565">2k</text>
    <text x="451.4" y="565">3k</text>
    <text x="558.6" y="565">4k</text>
    <text x="665.7" y="565">5k</text>
    <text x="772.9" y="565">6k</text>
    <text x="880" y="565">7k</text>
  </g>
  <text x="505" y="600" font-size="15" fill="#1a1a1a" text-anchor="middle" font-style="italic">
    iterations
  </text>

  <!-- LinGapE curve: slow gray dashed -->
  <path d="M 130.0 180.0 L 140.7 187.3 L 151.4 194.4 L 162.1 201.4 L 172.9 208.2 L 183.6 214.9 L 194.3 221.5 L 205.0 227.9 L 215.7 234.2 L 226.4 240.4 L 237.1 246.5 L 247.9 252.4 L 258.6 258.2 L 269.3 263.9 L 280.0 269.5 L 290.7 274.9 L 301.4 280.3 L 312.1 285.5 L 322.9 290.7 L 333.6 295.7 L 344.3 300.6 L 355.0 305.5 L 365.7 310.2 L 376.4 314.9 L 387.1 319.4 L 397.9 323.9 L 408.6 328.2 L 419.3 332.5 L 430.0 336.7 L 440.7 340.8 L 451.4 344.8 L 462.1 348.8 L 472.9 352.6 L 483.6 356.4 L 494.3 360.1 L 505.0 363.8 L 515.7 367.3 L 526.4 370.8 L 537.1 374.2 L 547.9 377.6 L 558.6 380.9 L 569.3 384.1 L 580.0 387.2 L 590.7 390.3 L 601.4 393.3 L 612.1 396.3 L 622.9 399.2 L 633.6 402.0 L 644.3 404.8 L 655.0 407.6 L 665.7 410.2 L 676.4 412.9 L 687.1 415.4 L 697.9 417.9 L 708.6 420.4 L 719.3 422.8 L 730.0 425.2 L 740.7 427.5 L 751.4 429.8 L 762.1 432.0 L 772.9 434.2 L 783.6 436.3 L 794.3 438.4 L 805.0 440.5 L 815.7 442.5 L 826.4 444.5 L 837.1 446.4 L 847.9 448.3 L 858.6 450.1 L 869.3 451.9 L 880.0 453.7"
        stroke="#8a857a" stroke-width="2.4" fill="none" stroke-linecap="round"
        stroke-dasharray="6,4"/>

  <!-- LinGapE label -->
  <text x="780" y="395" font-size="14" fill="#6b665e" font-weight="600">LinGapE</text>
</svg>
