<svg xmlns="http://www.w3.org/2000/svg" xmlns:xlink="http://www.w3.org/1999/xlink" width="500" zoomAndPan="magnify" viewBox="0 0 375 374.999991" height="500" preserveAspectRatio="xMidYMid meet" version="1.0"><defs><g/><clipPath id="8378486c88"><path d="M 141.40625 147.113281 L 193.933594 147.113281 L 193.933594 163.542969 L 141.40625 163.542969 Z M 141.40625 147.113281 " clip-rule="nonzero"/></clipPath><clipPath id="203d861fed"><path d="M 141.40625 183.097656 L 193.933594 183.097656 L 193.933594 199.523438 L 141.40625 199.523438 Z M 141.40625 183.097656 " clip-rule="nonzero"/></clipPath><clipPath id="e2cd7c6994"><path d="M 141.40625 218.550781 L 185.023438 218.550781 L 185.023438 236.242188 L 141.40625 236.242188 Z M 141.40625 218.550781 " clip-rule="nonzero"/></clipPath><clipPath id="e8c2f73a68"><path d="M 141.394531 147.699219 L 159.089844 147.699219 L 159.089844 236.25 L 141.394531 236.25 Z M 141.394531 147.699219 " clip-rule="nonzero"/></clipPath></defs><rect x="-37.5" width="450" fill="#ffffff" y="-37.499999" height="449.999989" fill-opacity="1"/><rect x="-37.5" width="450" fill="#ffffff" y="-37.499999" height="449.999989" fill-opacity="1"/><g fill="#404040" fill-opacity="1"><g transform="translate(58.729581, 235.018295)"><g><path d="M 60.59375 -1.4375 C 60.738281 -1.070312 60.71875 -0.738281 60.53125 -0.4375 C 60.351562 -0.144531 60.039062 0 59.59375 0 L 43.734375 0 C 43.140625 0 42.769531 -0.222656 42.625 -0.671875 L 26.421875 -35.84375 L 16.875 -35.84375 L 16.875 -1 C 16.875 -0.332031 16.46875 0 15.65625 0 L 1.109375 0 C 0.367188 0 0 -0.332031 0 -1 L 0 -52.15625 L 29.859375 -52.15625 C 30.742188 -52.15625 31.925781 -52.226562 33.40625 -52.375 C 34.882812 -52.53125 36.34375 -52.941406 37.78125 -53.609375 C 39.226562 -54.273438 40.453125 -55.289062 41.453125 -56.65625 C 42.453125 -58.019531 42.953125 -59.925781 42.953125 -62.375 C 42.953125 -64.8125 42.414062 -66.734375 41.34375 -68.140625 C 40.269531 -69.546875 38.957031 -70.5625 37.40625 -71.1875 C 35.851562 -71.820312 34.375 -72.226562 32.96875 -72.40625 C 31.5625 -72.59375 30.523438 -72.6875 29.859375 -72.6875 L 0 -72.6875 L 0 -87.78125 C 0 -88.445312 0.367188 -88.78125 1.109375 -88.78125 L 29.859375 -88.78125 C 30.890625 -88.78125 32.550781 -88.6875 34.84375 -88.5 C 37.144531 -88.320312 39.71875 -87.828125 42.5625 -87.015625 C 45.40625 -86.203125 48.140625 -84.867188 50.765625 -83.015625 C 53.398438 -81.160156 55.566406 -78.566406 57.265625 -75.234375 C 58.972656 -71.910156 59.828125 -67.625 59.828125 -62.375 C 59.828125 -57.863281 59.082031 -54.035156 57.59375 -50.890625 C 56.113281 -47.742188 54.132812 -45.171875 51.65625 -43.171875 C 49.175781 -41.171875 46.457031 -39.617188 43.5 -38.515625 C 46.3125 -32.222656 49.175781 -26.003906 52.09375 -19.859375 C 55.019531 -13.722656 57.851562 -7.582031 60.59375 -1.4375 Z M 60.59375 -1.4375 "/></g></g></g><g fill="#404040" fill-opacity="1"><g transform="translate(134.751855, 235.018295)"><g/></g></g><g fill="#404040" fill-opacity="1"><g transform="translate(174.704652, 235.018295)"><g/></g></g><g fill="#404040" fill-opacity="1"><g transform="translate(214.663181, 235.018295)"><g><path d="M 36.1875 -15.203125 C 37 -15.203125 37.40625 -14.867188 37.40625 -14.203125 L 37.40625 -1 C 37.40625 -0.332031 37 0 36.1875 0 L 1.21875 0 C 0.40625 0 0 -0.332031 0 -1 L 0 -14.203125 C 0 -14.867188 0.40625 -15.203125 1.21875 -15.203125 L 10.328125 -15.203125 L 10.328125 -88.78125 L 27.296875 -88.78125 L 27.296875 -15.203125 Z M 36.1875 -15.203125 "/></g></g></g><g fill="#404040" fill-opacity="1"><g transform="translate(266.157291, 235.018295)"><g><path d="M 18.3125 -56.609375 L 35.1875 -56.609375 L 35.1875 -1 C 35.1875 -0.332031 34.738281 0 33.84375 0 L 19.53125 0 C 18.71875 0 18.3125 -0.332031 18.3125 -1 Z M 1.21875 -73.578125 C 0.40625 -73.578125 0 -73.910156 0 -74.578125 L 0 -87.78125 C 0 -88.445312 0.40625 -88.78125 1.21875 -88.78125 L 52.15625 -88.78125 C 52.976562 -88.78125 53.390625 -88.445312 53.390625 -87.78125 L 53.390625 -74.578125 C 53.390625 -73.910156 52.976562 -73.578125 52.15625 -73.578125 Z M 1.21875 -73.578125 "/></g></g></g><path stroke-linecap="butt" transform="matrix(-1.585346, 0, 0, -1.585346, 371.261493, 110.505631)" fill="none" stroke-linejoin="miter" d="M -0.000142448 5.000491 L 84.432849 5.000491 " stroke="#404040" stroke-width="10" stroke-opacity="1" stroke-miterlimit="4"/><path stroke-linecap="butt" transform="matrix(0, -1.585346, 1.585346, 0, 355.419648, 214.836579)" fill="none" stroke-linejoin="miter" d="M 0.00040445 5.000807 L 72.576753 5.000807 " stroke="#404040" stroke-width="10" stroke-opacity="1" stroke-miterlimit="4"/><path stroke-linecap="butt" transform="matrix(1.585346, 0, 0, 1.585346, 5.277389, 266.747735)" fill="none" stroke-linejoin="miter" d="M -0.0000284628 5.000831 L 84.432963 5.000831 " stroke="#404040" stroke-width="10" stroke-opacity="1" stroke-miterlimit="4"/><path stroke-linecap="butt" transform="matrix(0, 1.585346, -1.585346, 0, 21.122717, 147.120312)" fill="none" stroke-linejoin="miter" d="M 0.000493149 5.000427 L 82.462305 5.000427 " stroke="#404040" stroke-width="10" stroke-opacity="1" stroke-miterlimit="4"/><g clip-path="url(#8378486c88)"><path fill="#00a6d6" d="M 141.40625 147.113281 L 193.90625 147.113281 L 193.90625 163.542969 L 141.40625 163.542969 Z M 141.40625 147.113281 " fill-opacity="1" fill-rule="nonzero"/></g><g clip-path="url(#203d861fed)"><path fill="#00a6d6" d="M 141.40625 183.097656 L 193.90625 183.097656 L 193.90625 199.523438 L 141.40625 199.523438 Z M 141.40625 183.097656 " fill-opacity="1" fill-rule="nonzero"/></g><g clip-path="url(#e2cd7c6994)"><path fill="#00a6d6" d="M 141.40625 218.550781 L 185.023438 218.550781 L 185.023438 236.242188 L 141.40625 236.242188 Z M 141.40625 218.550781 " fill-opacity="1" fill-rule="nonzero"/></g><g clip-path="url(#e8c2f73a68)"><path fill="#00a6d6" d="M 159.089844 147.699219 L 159.089844 236.242188 L 141.394531 236.242188 L 141.394531 147.699219 Z M 159.089844 147.699219 " fill-opacity="1" fill-rule="nonzero"/></g></svg>