<?xml version="1.0" encoding="UTF-8"?>
<svg xmlns="http://www.w3.org/2000/svg" viewBox="0 0 1100 720" width="1100" height="720" font-family="Georgia, 'Times New Roman', serif">
  <defs>
    <marker id="arrow-fwd" viewBox="0 0 10 10" refX="9" refY="5" markerWidth="7" markerHeight="7" orient="auto-start-reverse">
      <path d="M 0 0 L 10 5 L 0 10 z" fill="#1a1a1a"/>
    </marker>
  </defs>
  <rect width="1100" height="720" fill="#ffffff"/>

  <!-- TITLE -->
  <text font-weight="bold" font-family="Georgia, 'Times New Roman', serif" x="80" y="68" font-size="32" fill="#1a1a1a">ReformIR — picking reformulations per query</text>
  <text font-family="Georgia, 'Times New Roman', serif" x="80" y="94" font-size="16" fill="#6b665e" font-style="italic">Same bandit machinery as ORE — but the features are reformulations, not signals</text>
  <line x1="80" y1="112" x2="200" y2="112" stroke="#1a1a1a" stroke-width="1.2"/>

  <!-- LEFT COLUMN: REFORMULATOR -->
  <g transform="translate(80, 160)">
    <text x="0" y="14" font-size="13" font-weight="bold" fill="#1a1a1a" letter-spacing="0.5">REFORMULATOR</text>
    <text x="0" y="32" font-size="12" fill="#6b665e" font-style="italic">small LLM · cheap</text>
    <rect x="0" y="48" width="170" height="28" rx="14" fill="none" stroke="#1a1a1a" stroke-width="1.4"/>
    <text x="14" y="67" font-size="12" fill="#1a1a1a" font-style="italic">Q: original query</text>
    <line x1="85" y1="80" x2="85" y2="96" stroke="#1a1a1a" stroke-width="1.6" marker-end="url(#arrow-fwd)"/>
    <g font-size="11" fill="#1a1a1a">
      <rect x="0"   y="106" width="80" height="22" rx="11" fill="none" stroke="#8a857a" stroke-width="1"/>
      <text x="40"  y="121" text-anchor="middle">Q₁</text>
      <rect x="90"  y="106" width="80" height="22" rx="11" fill="none" stroke="#8a857a" stroke-width="1"/>
      <text x="130" y="121" text-anchor="middle">Q₂</text>
      <rect x="0"   y="134" width="80" height="22" rx="11" fill="none" stroke="#8a857a" stroke-width="1"/>
      <text x="40"  y="149" text-anchor="middle">Q₃</text>
      <rect x="90"  y="134" width="80" height="22" rx="11" fill="none" stroke="#8a857a" stroke-width="1"/>
      <text x="130" y="149" text-anchor="middle">Q₄</text>
    </g>
    <text x="0" y="174" font-size="11" fill="#6b665e" font-style="italic">m reformulations</text>
    <text x="0" y="190" font-size="11" fill="#6b665e" font-style="italic">BM25 retrieve each</text>
  </g>

  <!-- union arrow: reformulator → pool -->
  <line x1="252" y1="265" x2="288" y2="265" stroke="#1a1a1a" stroke-width="1.6" marker-end="url(#arrow-fwd)"/>
  <text x="270" y="257" text-anchor="middle" font-size="10" fill="#6b665e" font-style="italic">union</text>
</svg>
