<?xml version="1.0" encoding="UTF-8"?>
<svg xmlns="http://www.w3.org/2000/svg" viewBox="0 0 1100 720" width="1100" height="720" font-family="Georgia, 'Times New Roman', serif">
  <rect width="1100" height="720" fill="#ffffff"/>

  <!-- TITLE -->
  <text font-weight="bold" font-family="Georgia, 'Times New Roman', serif" x="80" y="68" font-size="32" fill="#1a1a1a">More reformulations → more drift</text>
  <text font-family="Georgia, 'Times New Roman', serif" x="80" y="94" font-size="16" fill="#6b665e" font-style="italic">Classical reformulation degrades past ~10 reformulations · ReformIR stays stable</text>
  <line x1="80" y1="112" x2="200" y2="112" stroke="#1a1a1a" stroke-width="1.2"/>

  <!-- chart label / context -->
  <text x="80" y="170" font-size="12" fill="#6b665e" font-style="italic" letter-spacing="0.5">TREC DL19 · BM25 → MonoT5 (budget c=100)</text>

  <!-- vertical axis -->
  <line x1="220" y1="200" x2="220" y2="500" stroke="#1a1a1a" stroke-width="1.2"/>
  <!-- horizontal axis -->
  <line x1="220" y1="500" x2="880" y2="500" stroke="#1a1a1a" stroke-width="1.2"/>

  <!-- horizontal grid lines -->
  <line x1="220" y1="200" x2="880" y2="200" stroke="#e8e2d6" stroke-width="0.8"/>
  <line x1="220" y1="300" x2="880" y2="300" stroke="#e8e2d6" stroke-width="0.8"/>
  <line x1="220" y1="400" x2="880" y2="400" stroke="#e8e2d6" stroke-width="0.8"/>

  <!-- y-axis tick labels -->
  <g font-size="12" fill="#6b665e" text-anchor="end">
    <text x="208" y="205">0.60</text>
    <text x="208" y="305">0.55</text>
    <text x="208" y="405">0.50</text>
    <text x="208" y="505">0.45</text>
  </g>

  <!-- y-axis title -->
  <text x="100" y="350" font-size="14" fill="#1a1a1a" transform="rotate(-90, 100, 350)" text-anchor="middle" letter-spacing="0.4">Recall@100</text>

  <!-- x-axis ticks + labels -->
  <g font-size="12" fill="#6b665e" text-anchor="middle">
    <line x1="240" y1="500" x2="240" y2="506" stroke="#1a1a1a" stroke-width="1"/>
    <text x="240" y="524">0</text>
    <line x1="320" y1="500" x2="320" y2="506" stroke="#1a1a1a" stroke-width="1"/>
    <text x="320" y="524">3</text>
    <line x1="400" y1="500" x2="400" y2="506" stroke="#1a1a1a" stroke-width="1"/>
    <text x="400" y="524">5</text>
    <line x1="500" y1="500" x2="500" y2="506" stroke="#1a1a1a" stroke-width="1"/>
    <text x="500" y="524">10</text>
    <line x1="600" y1="500" x2="600" y2="506" stroke="#1a1a1a" stroke-width="1"/>
    <text x="600" y="524">15</text>
    <line x1="720" y1="500" x2="720" y2="506" stroke="#1a1a1a" stroke-width="1"/>
    <text x="720" y="524">25</text>
    <line x1="860" y1="500" x2="860" y2="506" stroke="#1a1a1a" stroke-width="1"/>
    <text x="860" y="524">50</text>
  </g>

  <!-- x-axis title -->
  <text x="550" y="558" font-size="14" fill="#1a1a1a" text-anchor="middle" letter-spacing="0.3"># of reformulations</text>

  <!-- BM25 baseline: flat at y=400, gray dashed -->
  <line x1="240" y1="400" x2="860" y2="400" stroke="#8a857a" stroke-width="2" stroke-dasharray="6,4"/>
  <text x="438" y="392" font-size="13" fill="#6b665e" letter-spacing="0.3">BM25 baseline</text>
</svg>
